<svg width="68" height="21" viewBox="0 0 68 21"  xmlns="http://www.w3.org/2000/svg">
<g clip-path="url(#clip0_90_1830)">
<path d="M29.0341 11.0513C29.0341 14.0726 26.5205 16.299 23.4356 16.299C20.3508 16.299 17.8372 14.0726 17.8372 11.0513C17.8372 8.03005 20.3508 5.80371 23.4356 5.80371C26.5205 5.80371 29.0341 8.00876 29.0341 11.0513ZM26.5834 11.0513C26.5834 9.16333 25.1265 7.87153 23.4356 7.87153C21.7448 7.87153 20.2879 9.16333 20.2879 11.0513C20.2879 12.9394 21.7448 14.2312 23.4356 14.2312C25.1265 14.2312 26.5834 12.9181 26.5834 11.0513Z" />
<path d="M41.1118 11.0513C41.1118 14.0726 38.5981 16.299 35.5133 16.299C32.4285 16.299 29.9148 14.0726 29.9148 11.0513C29.9148 8.03005 32.4285 5.80371 35.5133 5.80371C38.5981 5.80371 41.1118 8.00876 41.1118 11.0513ZM38.661 11.0513C38.661 9.16333 37.2042 7.87153 35.5133 7.87153C33.8224 7.87153 32.3656 9.16333 32.3656 11.0513C32.3656 12.9394 33.8224 14.2312 35.5133 14.2312C37.2042 14.2312 38.661 12.9181 38.661 11.0513Z" />
<path d="M52.6861 6.12075V15.5419C52.6861 19.4173 50.2555 21.0001 47.382 21.0001C44.6771 21.0001 43.0491 19.299 42.4352 17.9078L44.5689 17.0726C44.9488 17.9267 45.8798 18.9346 47.3795 18.9346C49.2188 18.9346 50.3586 17.8676 50.3586 15.8589V15.1042H50.2731C49.7245 15.7406 48.6677 16.2966 47.3342 16.2966C44.5437 16.2966 41.9873 14.0111 41.9873 11.0703C41.9873 8.12942 44.5437 5.80371 47.3342 5.80371C48.6652 5.80371 49.722 6.3597 50.2731 6.97721H50.3586V6.12311H52.6861V6.12075ZM50.5322 11.0703C50.5322 9.22248 49.2213 7.87153 47.5531 7.87153C45.8849 7.87153 44.4456 9.22248 44.4456 11.0703C44.4456 12.9181 45.8622 14.2312 47.5531 14.2312C49.244 14.2312 50.5322 12.8991 50.5322 11.0703Z" />
<path d="M56.5234 0.598633V15.9772H54.1331V0.598633H56.5234Z" />
<path d="M65.8383 12.7779L67.7405 13.9703C67.1265 14.8244 65.647 16.296 63.0906 16.296C59.9202 16.296 57.5525 13.9916 57.5525 11.0484C57.5525 7.92775 59.9403 5.80078 62.8163 5.80078C65.6923 5.80078 67.1291 7.96797 67.592 9.13911L67.8462 9.73532L60.3857 12.6407C60.9569 13.6935 61.8451 14.2306 63.0906 14.2306C64.3361 14.2306 65.2042 13.6533 65.8383 12.7779ZM59.9831 10.8899L64.9702 8.94274C64.6959 8.28737 63.8706 7.83075 62.8994 7.83075C61.6539 7.83075 59.9202 8.86466 59.9831 10.8899Z" />
<path d="M8.789 9.68612V7.45978H16.7678C16.8458 7.84779 16.8861 8.30678 16.8861 8.80363C16.8861 10.474 16.4004 12.5394 14.8354 14.011C13.3131 15.5016 11.3681 16.2965 8.79152 16.2965C4.01582 16.2965 0 12.6388 0 8.14826C0 3.65773 4.01582 0 8.79152 0C11.4335 0 13.3156 0.974763 14.7297 2.24527L13.059 3.81625C12.0449 2.92192 10.6711 2.22634 8.789 2.22634C5.30158 2.22634 2.57405 4.86909 2.57405 8.14826C2.57405 11.4274 5.30158 14.0702 8.789 14.0702C11.051 14.0702 12.3393 13.2161 13.1646 12.4401C13.8339 11.8107 14.2743 10.9117 14.4479 9.68375H8.789V9.68612Z" />
</g>
<defs>
<clipPath id="clip0_90_1830">
<rect width="67.8462" height="21" />
</clipPath>
</defs>
</svg>
