<?xml version="1.0" encoding="UTF-8"?>
<svg id="Calque_1" xmlns="http://www.w3.org/2000/svg" version="1.1" viewBox="0 0 375 375">
  <!-- Generator: Adobe Illustrator 29.3.1, SVG Export Plug-In . SVG Version: 2.1.0 Build 151)  -->
  <defs>
    <style>
      .st0 {
        fill: #fff;
      }
    </style>
  </defs>
  <rect class="st0" x="12.5" y="12.5" width="350" height="350" rx="38.6" ry="38.6"/>
  <path d="M168.1,41.3c30.8,3,63.7,18.7,70.8,51.5,58.4,10.9,67.5,90.3,21.6,122.4-25,17.5-57.1,18.2-86.5,17.6v-23.3c25.5.3,63.6.4,78.7-24.2,11.8-19.3,8.5-51.1-12.7-62.5-2,44.9-44.7,68-85.4,69.8v139c0,.1-1.8,1.9-1.9,1.9h-27.8v-203.1h29.7v37.5c24.9-.3,48.9-13.2,55-38.7.6-2.7,3.3-16.9,0-16.9h-84.7v-25.9l77.6,1.3c-3.2-8-14.3-14.7-22-17.4-2.5-.9-15.7-4.6-17.4-4.6h-86v-24.6h91.2Z"/>
  <rect x="76.9" y="84" width="28.5" height="203.1"/>
  <path d="M298.1,333.7h-33c-4.9,0-46.8-72.7-54.9-81-.6-4,7.4-3,10.3-3.7,5.9-1.3,12-2.7,17.4-5.7l60.1,90.4Z"/>
</svg>