<?xml version="1.0" encoding="UTF-8"?>
<svg id="Calque_1" xmlns="http://www.w3.org/2000/svg" version="1.1" viewBox="0 0 180 180">
  <!-- Generator: Adobe Illustrator 29.3.1, SVG Export Plug-In . SVG Version: 2.1.0 Build 151)  -->
  <defs>
    <style>
      .st0 {
        fill: #000000;
      }
    </style>
  </defs>
  <path class="st0" d="M0,21.7c7.5,15.6,22.6,26.2,39.8,28-2.4,20.2-19.5,35.3-39.8,35.4v9.9c20.3,0,37.4,15.2,39.8,35.4-17.2,1.8-32.2,12.4-39.8,28v21.7h5c0-20.3,15.2-37.4,35.4-39.8,1.8,17.2,12.4,32.2,28,39.8h43.4c15.6-7.5,26.2-22.6,28-39.8,20.1,2.4,35.3,19.5,35.3,39.8h4.9v-21.7c-7.5-15.6-22.6-26.2-39.8-28,2.4-20.1,19.5-35.3,39.8-35.3v-9.9c-20.3,0-37.4-15.2-39.8-35.4,17.2-1.8,32.3-12.4,39.8-28V0h-4.9c0,20.3-15.2,37.4-35.4,39.8-1.8-17.2-12.4-32.2-28-39.8h-43.3c-15.6,7.5-26.2,22.6-28,39.8C20.2,37.4,5,20.3,5,0H0v21.7ZM90,175.1c-20.3,0-37.4-15.2-39.8-35.4,17.2-1.8,32.3-12.4,39.8-28,7.5,15.6,22.6,26.2,39.8,28-2.4,20.2-19.5,35.3-39.8,35.4ZM158.3,90c-15.6,7.5-26.2,22.6-28,39.8-22-2.4-37.8-22.2-35.4-44.1,2-18.6,16.8-33.3,35.4-35.4,1.8,17.2,12.4,32.2,28,39.8ZM90,5c20.3,0,37.4,15.2,39.8,35.4-17.2,1.8-32.2,12.4-39.8,28-7.5-15.6-22.6-26.2-39.8-28,2.4-20.1,19.5-35.3,39.8-35.3ZM49.7,50.2c22,2.4,37.8,22.2,35.4,44.1-2,18.6-16.8,33.3-35.4,35.4-1.8-17.2-12.4-32.2-28-39.8,15.6-7.5,26.2-22.6,28-39.8Z"/>
</svg>